<svg width="25" height="23" viewBox="0 0 25 23" fill="none" xmlns="http://www.w3.org/2000/svg">
<path fill-rule="evenodd" clip-rule="evenodd" d="M8.7793 17.2234L13.7096 22.221L24.4127 11.5125L13.8402 0.934692L8.61914 5.76655L14.7793 11.5332L8.7793 17.2234ZM10.4096 5.80142L16.1385 11.5332L10.3838 17.0291L13.7208 20.4533L22.6571 11.5125L13.8066 2.65759L10.4096 5.80142Z" fill="url(#paint0_linear_2301_607)"/>
<path fill-rule="evenodd" clip-rule="evenodd" d="M0.105469 16.9972L5.31435 22.2209L16.2664 11.5124L5.44791 0.93457L0.105469 5.76643L5.98216 11.5124L0.105469 16.9972ZM1.91763 5.80168L7.77963 11.5333L1.89098 17.0293L5.32541 20.4734L14.4902 11.5124L5.41476 2.63877L1.91763 5.80168Z" fill="url(#paint1_linear_2301_607)"/>
<defs>
<linearGradient id="paint0_linear_2301_607" x1="11.2134" y1="17.0325" x2="22.1101" y2="6.63627" gradientUnits="userSpaceOnUse">
<stop stop-color="#0194FF"/>
<stop offset="1" stop-color="#01EADA"/>
</linearGradient>
<linearGradient id="paint1_linear_2301_607" x1="2.24858" y1="17.5277" x2="10.1053" y2="5.60014" gradientUnits="userSpaceOnUse">
<stop stop-color="#721EFF"/>
<stop offset="1" stop-color="#206BFF"/>
<stop offset="1" stop-color="#206BFF"/>
</linearGradient>
</defs>
</svg>
