<svg width="36" height="26" viewBox="0 0 36 26" fill="none" xmlns="http://www.w3.org/2000/svg">
<path d="M30.148 0H14.2125C13.5626 0 13.4215 0.0469913 13.0509 0.417393L0.417608 12.1182C0.0470154 12.4886 0 12.6296 0 13.2792V20.151C0 24.0485 1.94976 26 5.85204 26H21.7875C22.4374 26 22.5757 25.953 22.9463 25.5826L35.5824 13.8845C35.953 13.5141 36 13.3732 36 12.7236V5.85456C36 1.95428 34.0502 0.00552851 30.148 0.00552851V0ZM19.9677 13.3372C19.9677 14.161 19.8129 14.8658 19.5003 15.4574C19.1906 16.0461 18.7398 16.4912 18.1563 16.7952C17.5699 17.0993 16.8785 17.2486 16.0793 17.2486C15.28 17.2486 14.5776 17.0993 13.9968 16.8008C13.416 16.5022 12.9652 16.0655 12.6472 15.4878C12.3291 14.9101 12.1687 14.2107 12.1687 13.387V8.74867H14.4337V13.4948C14.4337 13.8901 14.5001 14.2245 14.6329 14.501C14.7656 14.7746 14.9564 14.9847 15.2026 15.1257C15.4487 15.2666 15.7446 15.3385 16.0931 15.3385C16.4416 15.3385 16.7264 15.2666 16.9781 15.1257C17.227 14.9847 17.4178 14.7774 17.5478 14.501C17.6778 14.2273 17.7469 13.8928 17.7525 13.4948V8.74867H19.9705V13.3372H19.9677ZM23.8313 17.1021H21.5773V8.74867H23.8313V17.1021Z" fill="black"/>
</svg>
